<svg version="1.1" id="Layer_1" xmlns="http://www.w3.org/2000/svg" xmlns:xlink="http://www.w3.org/1999/xlink" x="0px" y="0px"
	 width="100%" viewBox="0 0 900 900" enable-background="new 0 0 900 900" xml:space="preserve">
<path fill="#FFFEFF" opacity="1.000000" stroke="none"
	d="
M901.000000,341.000000
	C901.000000,528.000000 901.000000,714.500000 901.000000,901.000000
	C601.000000,901.000000 301.000000,901.000000 1.000000,901.000000
	C1.000000,601.000000 1.000000,301.000000 1.000000,1.000000
	C301.000000,1.000000 601.000000,1.000000 901.000000,1.000000
	C901.000000,114.166664 901.000000,227.333328 901.000000,341.000000
M730.000000,80.000000
	C730.000000,80.000000 729.877747,80.121178 729.947021,80.809494
	C735.275696,86.455719 741.996460,87.672569 749.084167,85.882545
	C756.458313,84.020164 761.563538,79.091721 763.707825,71.688667
	C766.091064,63.460285 764.141541,56.424641 758.462524,52.654594
	C757.350159,51.402439 756.237793,50.150288 754.894531,48.250965
	C748.982117,43.940258 742.490295,44.040039 736.014160,46.296200
	C728.815125,48.804237 723.403992,56.561676 723.619568,63.840622
	C723.649048,65.220444 723.678589,66.600258 723.322205,68.556435
	C723.931641,73.305397 725.224121,77.667122 730.000000,80.000000
M166.175995,592.067261
	C165.423080,592.955872 164.585587,593.786438 163.929733,594.741638
	C150.440826,614.389465 142.776459,636.454163 138.701599,659.623657
	C134.655228,682.631226 134.456909,705.883423 137.475784,729.163391
	C139.802628,747.106812 144.278366,764.369934 152.224197,780.605896
	C162.721710,802.055847 177.905197,819.671143 197.382217,833.461243
	C212.775131,844.359680 229.347351,853.077148 247.585846,858.178284
	C265.809937,863.275391 284.600403,864.145264 303.370117,864.381958
	C318.845612,864.577148 334.330963,863.814880 349.811127,863.847534
	C415.603943,863.986328 481.396423,864.272217 547.189087,864.482300
	C561.684143,864.528564 576.179382,864.482422 590.674561,864.482605
	C619.498413,864.482971 648.322388,864.464905 677.146118,864.521057
	C679.953430,864.526550 682.163818,864.305908 682.152954,860.715088
	C682.107483,845.720093 682.095581,830.724854 682.108643,815.729736
	C682.111145,812.821472 680.849915,811.432678 677.872986,811.523743
	C674.710266,811.620422 671.509338,811.269714 668.384644,811.630188
	C663.231995,812.224609 662.003174,810.182007 662.007019,805.159607
	C662.135376,639.045349 662.109009,472.931061 662.106384,306.816742
	C662.106384,305.150635 662.127686,303.484528 662.125549,301.818420
	C662.106934,287.463043 651.670593,275.335938 639.042969,275.430786
	C633.458557,275.472717 627.757141,277.511322 622.344604,279.341095
	C609.445679,283.701691 596.664185,288.381622 582.979248,287.815308
	C585.416504,278.879181 586.980408,269.584137 590.474182,261.082245
	C597.585388,243.777832 609.930603,229.889282 622.110657,215.963181
	C636.998047,198.941696 652.197083,182.148163 666.245911,164.449951
	C681.550415,145.169876 685.714111,123.039864 679.136658,99.092567
	C673.553467,78.765457 661.543396,62.468513 647.370605,47.387177
	C643.392944,43.154594 639.216248,42.241192 634.448181,44.673584
	C623.101074,50.462227 611.130310,55.464390 600.832642,62.783764
	C578.904968,78.369606 558.062378,95.471848 536.435303,111.493896
	C514.520630,127.729004 507.085663,149.362564 511.593628,175.509995
	C514.857849,194.443451 521.830322,212.268402 529.673340,229.725922
	C538.381775,249.109955 547.886719,268.222443 547.598267,290.320099
	C530.045898,288.204926 513.069458,284.056519 496.859772,276.776764
	C493.694702,275.355316 489.757660,275.125427 486.196411,275.207001
	C472.459106,275.521606 463.348145,290.736847 463.359924,301.478210
	C463.544250,469.599670 463.466705,637.721375 463.588074,805.843018
	C463.591461,810.546814 462.260712,811.681885 457.678589,811.670410
	C399.194611,811.523499 340.709869,811.480469 282.226013,811.651672
	C266.574829,811.697510 252.616440,806.836853 239.543564,798.794922
	C222.815643,788.504517 209.433533,774.825500 199.633453,757.844543
	C195.088608,749.969482 192.010818,741.409424 191.075150,731.334839
	C193.693268,731.334839 195.801483,731.334839 197.909714,731.334839
	C231.067505,731.334534 264.227875,731.092163 297.381897,731.445068
	C312.007294,731.600830 326.945801,719.153992 327.131012,702.192932
	C327.405334,677.072510 327.769653,651.953064 328.071381,626.832886
	C328.338928,604.562805 329.713623,582.283203 326.427124,560.076355
	C324.043427,543.969727 316.587189,533.896912 298.645355,533.396362
	C286.507660,533.057800 274.331909,533.470520 262.194794,534.022339
	C257.274506,534.245972 252.216644,535.163330 247.562286,536.759216
	C237.265030,540.290039 226.826263,543.722961 217.088623,548.505676
	C196.688126,558.525635 179.167801,572.248779 166.175995,592.067261
z"/>
<path fill="#E32432" opacity="1.000000" stroke="none"
	d="
M548.466370,290.125854
	C547.886719,268.222443 538.381775,249.109955 529.673340,229.725922
	C521.830322,212.268402 514.857849,194.443451 511.593628,175.509995
	C507.085663,149.362564 514.520630,127.729004 536.435303,111.493896
	C558.062378,95.471848 578.904968,78.369606 600.832642,62.783764
	C611.130310,55.464390 623.101074,50.462227 634.448181,44.673584
	C639.216248,42.241192 643.392944,43.154594 647.370605,47.387177
	C661.543396,62.468513 673.553467,78.765457 679.136658,99.092567
	C685.714111,123.039864 681.550415,145.169876 666.245911,164.449951
	C652.197083,182.148163 636.998047,198.941696 622.110657,215.963181
	C609.930603,229.889282 597.585388,243.777832 590.474182,261.082245
	C586.980408,269.584137 585.416504,278.879181 582.672607,288.459076
	C580.651733,289.737518 578.937500,290.372192 576.737000,290.990845
	C573.390991,291.089996 570.531250,291.205200 567.258972,291.202698
	C563.013245,291.166260 559.180054,291.247498 554.898010,291.235718
	C552.906738,291.086426 551.364258,291.030090 549.750916,290.761414
	C549.275452,290.407990 548.870911,290.266907 548.466370,290.125854
M617.892273,103.374146
	C597.376526,121.554008 579.481812,141.991638 564.055664,164.684204
	C545.611755,191.815979 543.818237,219.365738 560.613342,247.868073
	C562.799072,251.577454 564.380188,251.423691 566.665955,248.053757
	C581.293274,226.488754 596.517090,205.306442 610.502441,183.334854
	C621.822937,165.549805 631.455139,146.656738 634.854248,125.496216
	C635.765137,119.825600 635.153687,113.412216 633.401672,107.927391
	C630.688232,99.433060 624.729309,97.949417 617.892273,103.374146
z"/>
<path fill="#525071" opacity="1.000000" stroke="none"
	d="
M548.032349,290.222961
	C548.870911,290.266907 549.275452,290.407990 549.483521,291.050171
	C542.774658,290.742706 536.113098,290.541168 529.784424,288.985138
	C519.972168,286.572632 510.284912,283.528687 500.739960,280.193420
	C493.962708,277.825287 487.406189,275.007904 480.244629,278.198395
	C470.228363,282.660645 465.810852,290.526398 465.814850,301.443695
	C465.876282,469.589569 465.860504,637.735413 465.860504,805.881287
	C465.860504,813.741577 465.616394,813.968628 457.638489,813.967957
	C398.312500,813.963135 338.986359,814.020203 279.660797,813.857056
	C274.095459,813.841736 268.330994,813.123657 263.011292,811.544922
	C250.516083,807.836487 238.978867,801.796448 228.879791,793.599609
	C217.898453,784.686707 207.888992,774.628540 200.430435,762.469421
	C194.387756,752.618591 189.042480,742.382202 190.495697,730.140747
	C225.282440,730.057190 259.605103,730.038574 293.927612,729.958679
	C296.037689,729.953796 298.146667,729.465088 300.642578,729.176392
	C312.743195,727.113831 321.076477,721.164062 324.416626,708.804810
	C324.799164,706.979919 325.053711,705.502563 325.055511,704.024963
	C325.089844,675.667297 325.094482,647.309570 325.285278,618.578125
	C326.623779,596.063293 327.238800,573.894409 322.600433,552.070129
	C321.323730,546.062988 318.167511,540.077332 311.403229,537.926086
	C307.362946,536.641113 303.107361,536.032959 298.491394,535.029297
	C290.340576,534.934631 282.646912,534.931396 274.570984,535.056274
	C270.604248,535.731384 267.020660,536.739563 263.435120,536.746399
	C247.250092,536.777161 232.802963,542.716431 218.651184,549.606445
	C204.434692,556.528015 191.363205,565.176392 180.511429,576.810913
	C175.889679,581.766052 171.673019,587.099121 167.138092,592.126831
	C167.003876,591.993225 166.737946,591.723572 166.737946,591.723572
	C179.167801,572.248779 196.688126,558.525635 217.088623,548.505676
	C226.826263,543.722961 237.265030,540.290039 247.562286,536.759216
	C252.216644,535.163330 257.274506,534.245972 262.194794,534.022339
	C274.331909,533.470520 286.507660,533.057800 298.645355,533.396362
	C316.587189,533.896912 324.043427,543.969727 326.427124,560.076355
	C329.713623,582.283203 328.338928,604.562805 328.071381,626.832886
	C327.769653,651.953064 327.405334,677.072510 327.131012,702.192932
	C326.945801,719.153992 312.007294,731.600830 297.381897,731.445068
	C264.227875,731.092163 231.067505,731.334534 197.909714,731.334839
	C195.801483,731.334839 193.693268,731.334839 191.075150,731.334839
	C192.010818,741.409424 195.088608,749.969482 199.633453,757.844543
	C209.433533,774.825500 222.815643,788.504517 239.543564,798.794922
	C252.616440,806.836853 266.574829,811.697510 282.226013,811.651672
	C340.709869,811.480469 399.194611,811.523499 457.678589,811.670410
	C462.260712,811.681885 463.591461,810.546814 463.588074,805.843018
	C463.466705,637.721375 463.544250,469.599670 463.359924,301.478210
	C463.348145,290.736847 472.459106,275.521606 486.196411,275.207001
	C489.757660,275.125427 493.694702,275.355316 496.859772,276.776764
	C513.069458,284.056519 530.045898,288.204926 548.032349,290.222961
z"/>
<path fill="#525071" opacity="1.000000" stroke="none"
	d="
M577.223267,291.006866
	C578.937500,290.372192 580.651733,289.737518 582.596008,288.910339
	C596.664185,288.381622 609.445679,283.701691 622.344604,279.341095
	C627.757141,277.511322 633.458557,275.472717 639.042969,275.430786
	C651.670593,275.335938 662.106934,287.463043 662.125549,301.818420
	C662.127686,303.484528 662.106384,305.150635 662.106384,306.816742
	C662.109009,472.931061 662.135376,639.045349 662.007019,805.159607
	C662.003174,810.182007 663.231995,812.224609 668.384644,811.630188
	C671.509338,811.269714 674.710266,811.620422 677.872986,811.523743
	C680.849915,811.432678 682.111145,812.821472 682.108643,815.729736
	C682.095581,830.724854 682.107483,845.720093 682.152954,860.715088
	C682.163818,864.305908 679.953430,864.526550 677.146118,864.521057
	C648.322388,864.464905 619.498413,864.482971 590.674561,864.482605
	C576.179382,864.482422 561.684143,864.528564 547.189087,864.482300
	C481.396423,864.272217 415.603943,863.986328 349.811127,863.847534
	C334.330963,863.814880 318.845612,864.577148 303.370117,864.381958
	C284.600403,864.145264 265.809937,863.275391 247.585846,858.178284
	C229.347351,853.077148 212.775131,844.359680 197.382217,833.461243
	C177.905197,819.671143 162.721710,802.055847 152.224197,780.605896
	C144.278366,764.369934 139.802628,747.106812 137.475784,729.163391
	C134.456909,705.883423 134.655228,682.631226 138.701599,659.623657
	C142.776459,636.454163 150.440826,614.389465 163.929733,594.741638
	C164.585587,593.786438 165.423080,592.955872 166.456970,591.895386
	C166.737946,591.723572 167.003876,591.993225 167.038788,592.460815
	C164.971893,596.438599 162.915024,599.976624 160.760452,603.454163
	C151.485886,618.423523 145.860626,634.920837 142.209152,651.910889
	C139.622665,663.945557 139.188553,676.442810 137.545654,689.091797
	C137.507248,696.045349 137.716873,702.640747 137.920074,709.678833
	C138.428711,723.830566 139.562714,737.460266 143.855515,750.601868
	C146.963104,760.115112 149.537369,769.891968 153.624725,778.977661
	C162.827393,799.433777 176.772522,816.459778 195.072800,829.377625
	C205.254364,836.564758 216.375931,842.529053 227.478607,848.260437
	C233.850220,851.549438 240.946198,853.558044 247.873642,855.611389
	C254.163132,857.475708 260.622223,858.869141 267.088104,860.006653
	C272.674194,860.989319 278.374939,861.320374 284.487061,862.011963
	C318.420288,862.121094 351.891418,862.187012 385.362549,862.188843
	C481.949371,862.194092 578.536194,862.173462 675.415039,862.188599
	C676.097290,862.199219 676.487610,862.184265 677.325073,862.186157
	C678.522034,861.009338 679.909790,859.823364 679.924194,858.621033
	C680.088928,844.827393 680.021790,831.031067 680.080322,817.235840
	C680.089600,815.045349 679.658997,813.581970 676.564331,814.052063
	C673.264099,814.000427 670.431702,813.976746 667.599365,813.970093
	C660.092346,813.952515 660.091370,813.955383 660.091553,806.626343
	C660.095154,638.667664 660.114990,470.708954 660.009460,302.750336
	C660.006836,298.582001 659.388977,294.072540 657.726013,290.311096
	C652.843933,279.268646 641.367615,273.734161 631.232605,277.977905
	C616.241028,284.255157 600.570435,287.835052 584.917603,291.606293
	C582.539001,292.179352 579.797119,291.244354 577.223267,291.006866
z"/>
<path fill="#181646" opacity="1.000000" stroke="none"
	d="
M723.708130,67.980080
	C723.678589,66.600258 723.649048,65.220444 723.998901,63.233223
	C727.186951,53.482742 732.546753,46.885715 742.712280,46.505371
	C746.814392,46.351883 750.985657,48.045246 755.125427,48.898132
	C756.237793,50.150288 757.350159,51.402439 758.723877,53.214287
	C765.578796,62.914490 763.818726,72.077637 758.672302,77.837616
	C752.631165,84.598915 744.267334,87.775444 734.957947,82.902359
	C733.247864,82.007202 731.570312,81.049835 729.877747,80.121185
	C729.877747,80.121178 730.000000,80.000000 729.973938,79.703613
	C727.867981,75.598175 725.788025,71.789124 723.708130,67.980080
M730.384277,56.390469
	C727.338013,62.700348 726.410645,68.942589 731.054443,75.703812
	C734.672363,78.015999 738.043945,80.979172 741.974060,82.466415
	C746.340759,84.118919 754.103455,79.873726 756.114624,75.345169
	C757.140137,73.245888 758.165649,71.146606 759.739197,68.551628
	C759.577087,66.678627 759.415039,64.805618 759.278931,62.133896
	C758.339905,57.023087 755.652344,53.315811 750.194031,50.899521
	C747.143250,50.646923 744.092407,50.394325 740.343628,50.082954
	C739.247192,50.465778 738.150757,50.848598 736.377747,51.073219
	C734.591370,52.718529 732.805054,54.363842 730.384277,56.390469
z"/>
<path fill="#6B6985" opacity="1.000000" stroke="none"
	d="
M729.912354,80.465347
	C731.570312,81.049835 733.247864,82.007202 734.957947,82.902359
	C744.267334,87.775444 752.631165,84.598915 758.672302,77.837616
	C763.818726,72.077637 765.578796,62.914490 758.979736,53.407337
	C764.141541,56.424641 766.091064,63.460285 763.707825,71.688667
	C761.563538,79.091721 756.458313,84.020164 749.084167,85.882545
	C741.996460,87.672569 735.275696,86.455719 729.912354,80.465347
z"/>
<path fill="#6B6985" opacity="1.000000" stroke="none"
	d="
M755.010010,48.574547
	C750.985657,48.045246 746.814392,46.351883 742.712280,46.505371
	C732.546753,46.885715 727.186951,53.482742 724.079102,62.824875
	C723.403992,56.561676 728.815125,48.804237 736.014160,46.296200
	C742.490295,44.040039 748.982117,43.940258 755.010010,48.574547
z"/>
<path fill="#6B6985" opacity="1.000000" stroke="none"
	d="
M723.515137,68.268257
	C725.788025,71.789124 727.867981,75.598175 729.913513,79.764893
	C725.224121,77.667122 723.931641,73.305397 723.515137,68.268257
z"/>
<path fill="#181646" opacity="1.000000" stroke="none"
	d="
M576.737000,290.990845
	C579.797119,291.244354 582.539001,292.179352 584.917603,291.606293
	C600.570435,287.835052 616.241028,284.255157 631.232605,277.977905
	C641.367615,273.734161 652.843933,279.268646 657.726013,290.311096
	C659.388977,294.072540 660.006836,298.582001 660.009460,302.750336
	C660.114990,470.708954 660.095154,638.667664 660.091553,806.626343
	C660.091370,813.955383 660.092346,813.952515 667.599365,813.970093
	C670.431702,813.976746 673.264099,814.000427 676.566895,814.466309
	C677.355835,817.678040 677.916687,820.436951 677.948853,823.201965
	C678.062317,832.942932 678.085938,842.687378 677.944031,852.427551
	C677.896606,855.679260 677.250366,858.922302 676.877869,862.169312
	C676.487610,862.184265 676.097290,862.199219 675.302490,861.775757
	C672.922485,860.894287 670.947266,860.064880 668.971436,860.063660
	C563.597290,859.999084 458.223114,860.004333 352.848938,860.002563
	C331.541046,860.002197 310.232910,859.960144 288.925751,860.086304
	C287.288574,860.095947 285.658417,861.293884 284.024994,861.939514
	C278.374939,861.320374 272.674194,860.989319 267.088104,860.006653
	C260.622223,858.869141 254.163132,857.475708 247.873642,855.611389
	C240.946198,853.558044 233.850220,851.549438 227.478607,848.260437
	C216.375931,842.529053 205.254364,836.564758 195.072800,829.377625
	C176.772522,816.459778 162.827393,799.433777 153.624725,778.977661
	C149.537369,769.891968 146.963104,760.115112 143.855515,750.601868
	C139.562714,737.460266 138.428711,723.830566 138.088379,709.268433
	C138.106628,701.854736 137.950150,695.294189 137.793671,688.733582
	C139.188553,676.442810 139.622665,663.945557 142.209152,651.910889
	C145.860626,634.920837 151.485886,618.423523 160.760452,603.454163
	C162.915024,599.976624 164.971893,596.438599 167.172989,592.594360
	C171.673019,587.099121 175.889679,581.766052 180.511429,576.810913
	C191.363205,565.176392 204.434692,556.528015 218.651184,549.606445
	C232.802963,542.716431 247.250092,536.777161 263.435120,536.746399
	C267.020660,536.739563 270.604248,535.731384 274.664124,535.461731
	C275.630524,536.125488 276.117065,536.841797 276.613190,536.848389
	C283.410950,536.939880 290.210907,536.983765 297.007568,536.871155
	C297.664062,536.860291 298.302032,535.730835 298.948608,535.120605
	C303.107361,536.032959 307.362946,536.641113 311.403229,537.926086
	C318.167511,540.077332 321.323730,546.062988 322.600433,552.070129
	C327.238800,573.894409 326.623779,596.063293 324.877625,618.675781
	C323.860443,620.626465 323.069519,622.102844 323.058014,623.585327
	C322.956604,636.627747 322.992493,649.671143 322.990570,662.714294
	C322.988556,676.497559 322.949005,690.281006 323.041595,704.063660
	C323.053009,705.762329 323.777130,707.456177 324.170990,709.152283
	C321.076477,721.164062 312.743195,727.113831 300.329376,728.851685
	C299.167480,728.385864 298.705475,728.074707 298.243042,728.074158
	C263.223724,728.029480 228.204346,727.990234 193.185303,728.080017
	C192.132263,728.082703 191.082748,729.456970 190.031586,730.191772
	C189.042480,742.382202 194.387756,752.618591 200.430435,762.469421
	C207.888992,774.628540 217.898453,784.686707 228.879791,793.599609
	C238.978867,801.796448 250.516083,807.836487 263.011292,811.544922
	C268.330994,813.123657 274.095459,813.841736 279.660797,813.857056
	C338.986359,814.020203 398.312500,813.963135 457.638489,813.967957
	C465.616394,813.968628 465.860504,813.741577 465.860504,805.881287
	C465.860504,637.735413 465.876282,469.589569 465.814850,301.443695
	C465.810852,290.526398 470.228363,282.660645 480.244629,278.198395
	C487.406189,275.007904 493.962708,277.825287 500.739960,280.193420
	C510.284912,283.528687 519.972168,286.572632 529.784424,288.985138
	C536.113098,290.541168 542.774658,290.742706 549.554443,291.262543
	C551.364258,291.030090 552.906738,291.086426 554.955566,291.570801
	C559.531860,291.772705 563.601685,291.546570 567.671509,291.320404
	C570.531250,291.205200 573.390991,291.089996 576.737000,290.990845
M618.564331,808.459290
	C618.709595,806.485657 618.981628,804.512085 618.981934,802.538452
	C619.001648,652.324585 619.000061,502.110687 618.999390,351.896820
	C618.999390,350.398071 619.220520,348.847809 618.901306,347.419342
	C618.701233,346.524353 617.681885,345.812469 617.005798,344.181305
	C616.242676,342.469116 615.479553,340.756927 614.228455,338.949463
	C613.911438,338.801178 613.586426,338.780792 613.093567,338.905396
	C613.093567,338.905396 613.111877,338.745728 613.083130,338.084167
	C612.216248,337.675140 611.273438,336.799957 610.493896,336.926971
	C598.742004,338.841705 587.062805,341.308197 575.257141,342.748260
	C568.030640,343.629700 560.560669,343.580231 553.301941,342.885040
	C542.063904,341.808624 530.848022,340.170959 519.747864,338.100586
	C512.359924,336.722626 510.132507,337.999115 510.132721,345.621307
	C510.136902,499.046783 510.139038,652.472229 510.142303,805.897705
	C510.142487,813.719299 510.416687,813.982971 518.370239,813.982239
	C548.522278,813.979431 578.674316,813.997131 608.826172,813.933533
	C610.752258,813.929443 612.676941,813.301025 615.285889,812.801575
	C616.177307,811.553833 617.068726,810.306091 618.564331,808.459290
M275.545837,589.568604
	C273.484131,589.251892 271.374786,588.494934 269.370850,588.711914
	C265.423859,589.139221 261.496429,589.945801 257.629456,590.879272
	C240.438263,595.029175 225.389648,603.119690 213.225449,616.052124
	C198.753448,631.438049 193.172974,650.874390 188.692764,670.822815
	C187.671860,675.368408 188.635788,676.635071 193.314972,676.601562
	C218.802856,676.419373 244.292709,676.526489 269.781830,676.486206
	C271.756287,676.483093 273.730194,676.111694 276.573730,675.913452
	C277.385193,674.775757 278.899261,673.641541 278.905060,672.499756
	C279.038696,646.171021 279.045044,619.841064 278.887054,593.512573
	C278.880005,592.339905 277.099792,591.177795 275.545837,589.568604
z"/>
<path fill="#FBBEC3" opacity="1.000000" stroke="none"
	d="
M618.191467,103.180656
	C624.729309,97.949417 630.688232,99.433060 633.401672,107.927391
	C635.153687,113.412216 635.765137,119.825600 634.854248,125.496216
	C631.455139,146.656738 621.822937,165.549805 610.502441,183.334854
	C596.517090,205.306442 581.293274,226.488754 566.665955,248.053757
	C564.380188,251.423691 562.799072,251.577454 560.613342,247.868073
	C543.818237,219.365738 545.611755,191.815979 564.055664,164.684204
	C579.481812,141.991638 597.376526,121.554008 618.191467,103.180656
M576.946716,150.444946
	C571.216064,158.767380 564.850586,166.736954 559.963806,175.528458
	C556.322144,182.079987 553.127686,189.539383 552.350586,196.871765
	C551.138000,208.311935 550.399597,220.168854 555.017700,231.307480
	C557.300598,236.813782 560.019287,242.139435 562.540833,247.546844
	C563.398010,247.831238 564.255188,248.115631 565.112366,248.400024
	C565.907898,246.909363 566.569092,245.326492 567.519592,243.942261
	C576.897522,230.285294 586.379578,216.699631 595.722900,203.019135
	C610.498169,181.385178 623.857178,159.007767 630.858459,133.456833
	C633.019714,125.569435 633.994751,117.490616 631.958618,109.421562
	C630.082886,101.988083 625.042236,100.314774 619.217529,105.215096
	C603.504761,118.434288 589.686340,133.453186 576.946716,150.444946
z"/>
<path fill="#525071" opacity="1.000000" stroke="none"
	d="
M567.258972,291.202698
	C563.601685,291.546570 559.531860,291.772705 555.404419,291.663818
	C559.180054,291.247498 563.013245,291.166260 567.258972,291.202698
z"/>
<path fill="#070433" opacity="1.000000" stroke="none"
	d="
M190.495697,730.140747
	C191.082748,729.456970 192.132263,728.082703 193.185303,728.080017
	C228.204346,727.990234 263.223724,728.029480 298.243042,728.074158
	C298.705475,728.074707 299.167480,728.385864 299.942932,728.876770
	C298.146667,729.465088 296.037689,729.953796 293.927612,729.958679
	C259.605103,730.038574 225.282440,730.057190 190.495697,730.140747
z"/>
<path fill="#0C0B3A" opacity="1.000000" stroke="none"
	d="
M324.416626,708.804810
	C323.777130,707.456177 323.053009,705.762329 323.041595,704.063660
	C322.949005,690.281006 322.988556,676.497559 322.990570,662.714294
	C322.992493,649.671143 322.956604,636.627747 323.058014,623.585327
	C323.069519,622.102844 323.860443,620.626465 324.697632,619.049561
	C325.094482,647.309570 325.089844,675.667297 325.055511,704.024963
	C325.053711,705.502563 324.799164,706.979919 324.416626,708.804810
z"/>
<path fill="#040230" opacity="1.000000" stroke="none"
	d="
M298.491425,535.029297
	C298.302032,535.730835 297.664062,536.860291 297.007568,536.871155
	C290.210907,536.983765 283.410950,536.939880 276.613190,536.848389
	C276.117065,536.841797 275.630524,536.125488 275.046387,535.333618
	C282.646912,534.931396 290.340576,534.934631 298.491425,535.029297
z"/>
<path fill="#070433" opacity="1.000000" stroke="none"
	d="
M284.487061,862.011963
	C285.658417,861.293884 287.288574,860.095947 288.925751,860.086304
	C310.232910,859.960144 331.541046,860.002197 352.848938,860.002563
	C458.223114,860.004333 563.597290,859.999084 668.971436,860.063660
	C670.947266,860.064880 672.922485,860.894287 675.010498,861.750122
	C578.536194,862.173462 481.949371,862.194092 385.362549,862.188843
	C351.891418,862.187012 318.420288,862.121094 284.487061,862.011963
z"/>
<path fill="#070433" opacity="1.000000" stroke="none"
	d="
M677.325073,862.186157
	C677.250366,858.922302 677.896606,855.679260 677.944031,852.427551
	C678.085938,842.687378 678.062317,832.942932 677.948853,823.201965
	C677.916687,820.436951 677.355835,817.678040 677.034790,814.502075
	C679.658997,813.581970 680.089600,815.045349 680.080322,817.235840
	C680.021790,831.031067 680.088928,844.827393 679.924194,858.621033
	C679.909790,859.823364 678.522034,861.009338 677.325073,862.186157
z"/>
<path fill="#040230" opacity="1.000000" stroke="none"
	d="
M137.545654,689.091797
	C137.950150,695.294189 138.106628,701.854736 138.094788,708.825745
	C137.716873,702.640747 137.507248,696.045349 137.545654,689.091797
z"/>
<path fill="#F0F0F5" opacity="1.000000" stroke="none"
	d="
M750.690369,51.434196
	C755.652344,53.315811 758.339905,57.023087 758.936890,62.741638
	C758.793579,65.248688 758.992371,67.148003 759.191101,69.047318
	C758.165649,71.146606 757.140137,73.245888 755.607300,75.577911
	C753.763428,74.862244 752.426880,73.913834 750.775330,72.833336
	C749.592285,71.134689 748.724365,69.568130 748.103394,67.832352
	C748.568359,67.118614 748.786316,66.574112 749.287231,65.929321
	C750.042236,65.219002 750.514343,64.608963 751.308228,63.852188
	C753.999329,61.113754 752.843323,59.007435 750.512451,56.756557
	C749.230835,56.236843 748.148254,55.996033 746.992126,55.497078
	C746.639038,55.016418 746.359619,54.793907 745.970825,54.239326
	C743.901306,53.978085 741.941040,54.048920 739.611328,54.142906
	C738.501892,54.159142 737.761780,54.152225 737.005981,53.780876
	C737.011597,52.688107 737.032959,51.959763 737.054321,51.231422
	C738.150757,50.848598 739.247192,50.465778 740.965942,50.394440
	C744.622314,50.948685 747.656372,51.191437 750.690369,51.434196
z"/>
<path fill="#C8C9D8" opacity="1.000000" stroke="none"
	d="
M751.090393,72.965424
	C752.426880,73.913834 753.763428,74.862244 755.412659,75.873047
	C754.103455,79.873726 746.340759,84.118919 741.974060,82.466415
	C738.043945,80.979172 734.672363,78.015999 731.409363,75.338409
	C732.550049,74.975914 733.335876,74.978813 734.371704,75.028496
	C734.946411,75.160561 735.271057,75.245857 735.829834,75.483017
	C736.231812,75.715088 736.399658,75.795288 736.754395,76.104965
	C740.217163,76.911163 740.323669,76.836670 740.274109,73.571335
	C740.647522,71.703423 741.037964,70.255157 741.428406,68.806892
	C742.445190,69.849106 743.524902,70.838951 744.453491,71.954559
	C744.955505,72.557533 745.073364,73.486290 745.588074,74.071350
	C746.461365,75.063904 747.511475,75.900833 748.487305,76.803162
	C749.354980,75.523911 750.222656,74.244659 751.090393,72.965424
z"/>
<path fill="#F0F0F5" opacity="1.000000" stroke="none"
	d="
M734.121704,74.981720
	C733.335876,74.978813 732.550049,74.975914 731.371460,74.991203
	C726.410645,68.942589 727.338013,62.700348 731.054443,56.214550
	C732.522583,56.406639 733.320435,56.774651 734.113403,57.598785
	C734.112854,63.697178 734.117249,69.339447 734.121704,74.981720
z"/>
<path fill="#C8C9D8" opacity="1.000000" stroke="none"
	d="
M734.118347,57.142654
	C733.320435,56.774651 732.522583,56.406639 731.371704,56.023891
	C732.805054,54.363842 734.591370,52.718529 736.716064,51.152321
	C737.032959,51.959763 737.011597,52.688107 736.954651,53.995407
	C736.732849,54.811588 736.616455,55.079144 736.393311,55.497520
	C736.216858,55.618000 735.904358,55.909458 735.633057,55.973896
	C734.947266,56.406441 734.532837,56.774548 734.118347,57.142654
z"/>
<path fill="#C8C9D8" opacity="1.000000" stroke="none"
	d="
M750.442200,51.166855
	C747.656372,51.191437 744.622314,50.948685 741.314941,50.423828
	C744.092407,50.394325 747.143250,50.646923 750.442200,51.166855
z"/>
<path fill="#C8C9D8" opacity="1.000000" stroke="none"
	d="
M759.465149,68.799469
	C758.992371,67.148003 758.793579,65.248688 758.923950,63.140995
	C759.415039,64.805618 759.577087,66.678627 759.465149,68.799469
z"/>
<path fill="#F9F9FB" opacity="1.000000" stroke="none"
	d="
M275.704346,675.911499
	C273.730194,676.111694 271.756287,676.483093 269.781830,676.486206
	C244.292709,676.526489 218.802856,676.419373 193.314972,676.601562
	C188.635788,676.635071 187.671860,675.368408 188.692764,670.822815
	C193.172974,650.874390 198.753448,631.438049 213.225449,616.052124
	C225.389648,603.119690 240.438263,595.029175 257.629456,590.879272
	C261.496429,589.945801 265.423859,589.139221 269.370850,588.711914
	C271.374786,588.494934 273.484131,589.251892 275.695496,590.237671
	C275.798218,619.241638 275.751282,647.576538 275.704346,675.911499
z"/>
<path fill="#4E4D6F" opacity="1.000000" stroke="none"
	d="
M614.602295,812.963013
	C612.676941,813.301025 610.752258,813.929443 608.826172,813.933533
	C578.674316,813.997131 548.522278,813.979431 518.370239,813.982239
	C510.416687,813.982971 510.142487,813.719299 510.142303,805.897705
	C510.139038,652.472229 510.136902,499.046783 510.132721,345.621307
	C510.132507,337.999115 512.359924,336.722626 519.747864,338.100586
	C530.848022,340.170959 542.063904,341.808624 553.301941,342.885040
	C560.560669,343.580231 568.030640,343.629700 575.257141,342.748260
	C587.062805,341.308197 598.742004,338.841705 610.493896,336.926971
	C611.273438,336.799957 612.216248,337.675140 612.694580,338.452698
	C607.436951,339.814667 602.576721,340.853302 597.697510,341.793884
	C573.952026,346.371185 550.207336,346.562103 526.454834,341.789886
	C522.036255,340.902100 517.570984,340.246796 512.757874,339.420776
	C512.757874,353.720947 512.757507,367.197693 512.757935,380.674438
	C512.762329,522.160217 512.788208,663.646057 512.681396,805.131775
	C512.677734,810.035400 513.858276,811.771423 519.085327,811.726929
	C548.580139,811.475769 578.079346,811.464783 607.573975,811.721375
	C612.415161,811.763489 613.308289,810.254944 613.305725,805.832520
	C613.215515,650.184509 613.242737,494.536407 613.253418,338.888306
	C613.586426,338.780792 613.911438,338.801178 614.509888,339.460999
	C614.802673,494.143707 614.815552,648.314941 614.816162,802.486145
	C614.816162,805.978455 614.676697,809.470703 614.602295,812.963013
z"/>
<path fill="#040230" opacity="1.000000" stroke="none"
	d="
M614.944092,812.882324
	C614.676697,809.470703 614.816162,805.978455 614.816162,802.486145
	C614.815552,648.314941 614.802673,494.143707 614.753845,339.508636
	C615.479553,340.756927 616.242676,342.469116 617.010620,345.066284
	C617.015381,495.363190 617.006348,644.775085 617.055237,794.186951
	C617.056824,799.144165 617.645203,804.101196 617.960144,809.058350
	C617.068726,810.306091 616.177307,811.553833 614.944092,812.882324
z"/>
<path fill="#20224B" opacity="1.000000" stroke="none"
	d="
M618.262207,808.758789
	C617.645203,804.101196 617.056824,799.144165 617.055237,794.186951
	C617.006348,644.775085 617.015381,495.363190 617.022766,345.484863
	C617.681885,345.812469 618.701233,346.524353 618.901306,347.419342
	C619.220520,348.847809 618.999390,350.398071 618.999390,351.896820
	C619.000061,502.110687 619.001648,652.324585 618.981934,802.538452
	C618.981628,804.512085 618.709595,806.485657 618.262207,808.758789
z"/>
<path fill="#0C0B3A" opacity="1.000000" stroke="none"
	d="
M276.139038,675.912476
	C275.751282,647.576538 275.798218,619.241638 275.995300,590.458740
	C277.099792,591.177795 278.880005,592.339905 278.887054,593.512573
	C279.045044,619.841064 279.038696,646.171021 278.905060,672.499756
	C278.899261,673.641541 277.385193,674.775757 276.139038,675.912476
z"/>
<path fill="#FEFEFD" opacity="1.000000" stroke="none"
	d="
M577.186646,150.180084
	C589.686340,133.453186 603.504761,118.434288 619.217529,105.215096
	C625.042236,100.314774 630.082886,101.988083 631.958618,109.421562
	C633.994751,117.490616 633.019714,125.569435 630.858459,133.456833
	C623.857178,159.007767 610.498169,181.385178 595.722900,203.019135
	C586.379578,216.699631 576.897522,230.285294 567.519592,243.942261
	C566.569092,245.326492 565.907898,246.909363 565.112366,248.400024
	C564.255188,248.115631 563.398010,247.831238 562.540833,247.546844
	C560.019287,242.139435 557.300598,236.813782 555.017700,231.307480
	C550.399597,220.168854 551.138000,208.311935 552.350586,196.871765
	C553.127686,189.539383 556.322144,182.079987 559.963806,175.528458
	C564.850586,166.736954 571.216064,158.767380 577.186646,150.180084
z"/>
<path fill="#20224B" opacity="1.000000" stroke="none"
	d="
M735.904358,55.909458
	C735.904358,55.909458 736.216858,55.618000 736.739868,55.654007
	C738.172485,55.480984 739.082092,55.271954 740.431641,55.053337
	C742.607788,54.886299 744.343994,54.728844 746.080139,54.571396
	C746.359619,54.793907 746.639038,55.016418 746.990601,55.913895
	C747.059998,59.528999 747.057312,62.469139 746.951050,65.642609
	C747.183716,66.584488 747.520020,67.293045 747.856445,68.001587
	C748.724365,69.568130 749.592285,71.134689 750.775330,72.833328
	C750.222656,74.244659 749.354980,75.523911 748.487305,76.803162
	C747.511475,75.900833 746.461365,75.063904 745.588074,74.071350
	C745.073364,73.486290 744.955505,72.557533 744.453491,71.954559
	C743.524902,70.838951 742.445190,69.849106 741.428406,68.806892
	C741.037964,70.255157 740.647522,71.703423 739.903992,73.764267
	C738.556396,74.876396 737.561951,75.375938 736.567505,75.875488
	C736.399658,75.795288 736.231812,75.715088 735.916077,74.992599
	C735.813599,68.203369 735.859009,62.056412 735.904358,55.909458
z"/>
<path fill="#0C0B3A" opacity="1.000000" stroke="none"
	d="
M747.054688,65.409279
	C747.057312,62.469139 747.059998,59.528999 747.064209,56.172043
	C748.148254,55.996033 749.230835,56.236843 750.324341,57.063606
	C750.552429,59.766018 750.769409,61.882484 750.986450,63.998940
	C750.514343,64.608963 750.042236,65.219002 749.135437,65.694275
	C748.152039,65.509430 747.603394,65.459351 747.054688,65.409279
z"/>
<path fill="#6B6985" opacity="1.000000" stroke="none"
	d="
M751.308228,63.852200
	C750.769409,61.882484 750.552429,59.766018 750.523499,57.342506
	C752.843323,59.007435 753.999329,61.113754 751.308228,63.852200
z"/>
<path fill="#C8C9D8" opacity="1.000000" stroke="none"
	d="
M745.970825,54.239319
	C744.343994,54.728844 742.607788,54.886299 740.439575,54.817413
	C740.007446,54.591080 739.980774,54.119755 739.980774,54.119755
	C741.941040,54.048920 743.901306,53.978085 745.970825,54.239319
z"/>
<path fill="#6B6985" opacity="1.000000" stroke="none"
	d="
M746.951050,65.642609
	C747.603394,65.459351 748.152039,65.509430 748.852539,65.794556
	C748.786316,66.574112 748.568359,67.118614 748.103394,67.832359
	C747.520020,67.293045 747.183716,66.584488 746.951050,65.642609
z"/>
<path fill="#6B6985" opacity="1.000000" stroke="none"
	d="
M739.611328,54.142906
	C739.980774,54.119755 740.007446,54.591080 739.999512,54.827003
	C739.082092,55.271954 738.172485,55.480984 736.916382,55.533524
	C736.616455,55.079144 736.732849,54.811588 736.970337,54.359840
	C737.761780,54.152225 738.501892,54.159142 739.611328,54.142906
z"/>
<path fill="#6B6985" opacity="1.000000" stroke="none"
	d="
M735.633057,55.973896
	C735.859009,62.056412 735.813599,68.203369 735.682007,74.840736
	C735.271057,75.245857 734.946411,75.160561 734.371704,75.028488
	C734.117249,69.339447 734.112854,63.697178 734.113403,57.598785
	C734.532837,56.774548 734.947266,56.406441 735.633057,55.973896
z"/>
<path fill="#6B6985" opacity="1.000000" stroke="none"
	d="
M736.754395,76.104958
	C737.561951,75.375938 738.556396,74.876396 739.920959,74.183922
	C740.323669,76.836670 740.217163,76.911163 736.754395,76.104958
z"/>
<path fill="#FDFDFD" opacity="1.000000" stroke="none"
	d="
M613.173462,338.896851
	C613.242737,494.536407 613.215515,650.184509 613.305725,805.832520
	C613.308289,810.254944 612.415161,811.763489 607.573975,811.721375
	C578.079346,811.464783 548.580139,811.475769 519.085327,811.726929
	C513.858276,811.771423 512.677734,810.035400 512.681396,805.131775
	C512.788208,663.646057 512.762329,522.160217 512.757935,380.674438
	C512.757507,367.197693 512.757874,353.720947 512.757874,339.420776
	C517.570984,340.246796 522.036255,340.902100 526.454834,341.789886
	C550.207336,346.562103 573.952026,346.371185 597.697510,341.793884
	C602.576721,340.853302 607.436951,339.814667 612.708923,338.783478
	C613.111877,338.745728 613.093567,338.905396 613.173462,338.896851
z"/>
</svg>
